<svg width="101" height="74" xmlns="http://www.w3.org/2000/svg" xmlns:xlink="http://www.w3.org/1999/xlink"><defs><path d="M19.512 55.576c-2.63 3.423-6.975 5.581-13.034 6.475a1 1 0 0 1-.951-1.582c1.198-1.631 2.17-3.263 2.917-4.895A8 8 0 0 1 .62 47.576V22.122a8 8 0 0 1 8-8h47.846a8 8 0 0 1 8 8v25.454a8 8 0 0 1-8 8H19.512z" id="a"/><path d="M36.221 14.14l20.24-.017a8 8 0 0 1 8.005 8l-.005 19.962H44.153a8 8 0 0 1-8-8.028l.068-19.918z" id="b"/></defs><g fill="none" fill-rule="evenodd"><path d="M-40-18h181v92H-40z"/><g><ellipse fill="#000" opacity=".04" cx="50.56" cy="71.725" rx="50.5" ry="2.162"/><use fill="#FFDFD3" xlink:href="#a"/><path stroke="#FF7864" stroke-width="2" d="M18.72 54.967l.3-.391h37.445a7 7 0 0 0 7-7V22.122a7 7 0 0 0-7-7H8.619a7 7 0 0 0-7 7v25.454a7 7 0 0 0 6.847 6.998l1.52.033-.632 1.383c-.776 1.696-1.784 3.386-3.022 5.071 5.822-.858 9.933-2.9 12.387-6.094z"/><path d="M81.538 41.56l-.29-.49H44.225a7 7 0 0 1-7-7V8.616a7 7 0 0 1 7-7h47.847a7 7 0 0 1 7 7V34.07a7 7 0 0 1-6.992 7l-1.453.002.52 1.356c.827 2.153 2.026 4.297 3.594 6.432-6.52-.962-10.892-3.405-13.203-7.3z" stroke="#FF7864" stroke-width="2"/><use fill="#FFEFE9" xlink:href="#b"/><path stroke="#FF7864" stroke-width="2" d="M37.218 15.139l-.065 18.922v.024a7 7 0 0 0 7 7h19.308l.005-18.962v-.005a7 7 0 0 0-7.004-6.995l-19.244.016z"/><path d="M42.979 24.405h14.133M42.979 31.772h14.133" stroke="#FF7864" stroke-width="2" stroke-linecap="round" stroke-linejoin="round"/></g></g></svg>