<svg width="160" height="80" xmlns="http://www.w3.org/2000/svg"><g fill="none" fill-rule="evenodd"><path d="M-11-11h181v92H-11z"/><g><rect fill="#000" opacity=".05" y="77" width="159.497" height="3" rx="1.5"/><g transform="translate(24.248 .365)"><path d="M21.36 20.282c4.135.934 7.807.716 11.015-.654s6.499-1.152 9.873.654v33.296c0 5.768-4.676 10.444-10.444 10.444-5.768 0-10.444-4.676-10.444-10.444V20.282zM64.393 8.485c4.136.934 7.808.716 11.016-.654s6.499-1.153 9.873.654v45.093c0 5.768-4.676 10.444-10.444 10.444-5.769 0-10.445-4.676-10.445-10.444V8.485z" fill="#FFDFD3"/><path d="M19.044 1.342h25.372M62.077 1.342H87.45" stroke="#FF7864" stroke-width="2" stroke-linecap="round" stroke-linejoin="round"/><path d="M22.36 1.378v53.063a9.444 9.444 0 0 0 18.888 0V1.378H22.36zM65.393 1.378v53.063a9.444 9.444 0 0 0 18.889 0V1.378H65.393z" stroke="#FF7864" stroke-width="2"/><path d="M45.726 11.651h14.258" stroke="#FF7864" stroke-width="2" stroke-linecap="square"/><path stroke="#FF7864" stroke-width="2" stroke-linecap="round" stroke-linejoin="round" d="M9.684 74.57V11.62H18.4M97.812 74.57V11.62h-8.716"/><path d="M.49 75.079h109.072" stroke="#FF7864" stroke-width="3" stroke-linecap="round" stroke-linejoin="round"/><rect fill="#FEAF90" x="17.462" y="6.233" width="3.874" height="10.653" rx="1.937"/><rect fill="#FEAF90" x="42.244" y="6.233" width="3.874" height="10.653" rx="1.937"/><rect fill="#FEAF90" x="60.473" y="6.233" width="3.874" height="10.653" rx="1.937"/><rect fill="#FEAF90" x="85.297" y="6.233" width="3.874" height="10.653" rx="1.937"/></g></g></g></svg>