<svg width="149" height="77" xmlns="http://www.w3.org/2000/svg" xmlns:xlink="http://www.w3.org/1999/xlink"><defs><circle id="a" cx="56.598" cy="52.481" r="18.612"/></defs><g transform="translate(-16 -15.005)" fill="none" fill-rule="evenodd"><path d="M0 0h181v92H0z"/><rect fill="#000" opacity=".05" x="16" y="89" width="149" height="3" rx="1.5"/><path d="M95 58.03V20.562A3.56 3.56 0 0 0 91.444 17H59.556A3.56 3.56 0 0 0 56 20.563v63.874A3.56 3.56 0 0 0 59.556 88h31.888A3.56 3.56 0 0 0 95 84.437v-5.505a19.522 19.522 0 0 1-3.014-10.451c0-3.752 1.056-7.349 3.014-10.451z" stroke="#FF7864" stroke-width="2"/><path fill="#FFDFD3" d="M63 34.005h25v10H63zM63 47.005h25v10H63zM63 60.005h25v10H63z"/><g transform="translate(55 16)"><use fill="#FEE7DD" xlink:href="#a"/><circle stroke="#FF7864" stroke-width="2" cx="56.598" cy="52.481" r="19.612"/></g><path stroke="#FF7864" stroke-width="2" stroke-linecap="round" stroke-linejoin="round" d="M100.843 67.923l8.266 8.266 13.893-13.893"/><path fill="#FF7864" d="M56.93 23.837h37.213v2H56.93zM56.93 79.075h37.551v2H56.93zM72.25 85h7.5c.69 0 1.25-.448 1.25-1s-.56-1-1.25-1h-7.5c-.69 0-1.25.448-1.25 1s.56 1 1.25 1M79.75 19.975h-7.5c-.69 0-1.25.448-1.25 1 0 .553.56 1 1.25 1h7.5c.69 0 1.25-.447 1.25-1 0-.552-.56-1-1.25-1"/></g></svg>