<svg xmlns="http://www.w3.org/2000/svg" viewBox="0 0 80 80"><circle fill="#43BDEF" cx="40" cy="40" r="40"/><path fill="#FFF" d="M63.7 27.8c-1.7.8-3.6 1.3-5.6 1.5 2-1.2 3.5-3.1 4.3-5.3-1.9 1.1-4 1.9-6.2 2.3-1.8-1.9-4.3-3-7.1-3-5.4 0-9.7 4.3-9.7 9.6 0 .8.1 1.5.2 2.2-8.1-.4-15.2-4.2-20-10-.8 1.4-1.3 3.1-1.3 4.8 0 3.3 1.7 6.2 4.3 8-1.6 0-3.1-.5-4.4-1.2v.1c0 1.2.2 2.4.7 3.5 1.2 3 3.9 5.3 7.1 5.9-.8.2-1.7.3-2.6.3-.6 0-1.2-.1-1.8-.2 1.2 3.8 4.8 6.6 9.1 6.6-3.3 2.6-7.5 4.1-12.1 4.1-.8 0-1.6 0-2.3-.1 4.3 2.7 9.4 4.3 14.9 4.3 15.2 0 24.5-10.5 27-21.5.4-1.9.7-3.9.7-5.8v-1.2c1.8-1.3 3.5-3 4.8-4.9z"/></svg>