<svg width="102" height="102" xmlns="http://www.w3.org/2000/svg"><g transform="translate(.677 .39)" fill-rule="nonzero" fill="none"><circle fill="#FF7864" cx="50.5" cy="50.5" r="50.5"/><path d="M71.865 31.22v29.559a8.117 8.117 0 0 1-4.037 7.14 8.174 8.174 0 0 1-8.224 0 8.117 8.117 0 0 1-4.038-7.14V31.223H45.432V60.78a8.117 8.117 0 0 1-4.038 7.14 8.174 8.174 0 0 1-8.224 0 8.117 8.117 0 0 1-4.037-7.14V35.269c0-5.556-4.557-5.266-10.133-5.266v30.776c.011 10.059 8.19 18.21 18.283 18.221 5.194 0 9.885-3.118 13.217-6.596C53.83 75.882 58.521 79 63.715 79 73.808 78.989 81.988 70.838 82 60.779v-29.56H71.865z" fill="#FFF"/></g></svg>